<svg width="38.000000" height="38.000000" viewBox="0 0 38 38" fill="none" xmlns="http://www.w3.org/2000/svg" xmlns:xlink="http://www.w3.org/1999/xlink">
	<desc>
			Created with Pixso.
	</desc>
	<defs>
		<clipPath id="clip2_10">
			<rect id="hover=default" rx="19.000000" width="38.000000" height="38.000000" fill="white" fill-opacity="0"/>
		</clipPath>
	</defs>
	<rect id="hover=default" rx="19.000000" width="38.000000" height="38.000000" fill="#2D2D2D" fill-opacity="1.000000"/>
	<g clip-path="url(#clip2_10)">
		<path id="path" d="M23.9 21.01L23.88 20.98C24.03 20.59 24.46 20.4 24.85 20.54C25.24 20.69 25.44 21.12 25.29 21.51L25.26 21.52L23.9 21.01ZM24.46 14.95L24.49 14.95C24.73 15.3 24.64 15.76 24.3 15.99C23.95 16.23 23.49 16.15 23.25 15.8L23.26 15.78L24.46 14.95ZM21.52 18.6L21.5 18.62C21.08 18.62 20.75 18.29 20.75 17.87C20.75 17.45 21.08 17.12 21.5 17.12L21.52 17.14L21.52 18.6ZM25.02 13.65L25 13.63C25 13.21 25.33 12.88 25.75 12.88C26.17 12.88 26.5 13.21 26.5 13.63L26.48 13.65L25.02 13.65Z" fill="#000000" fill-opacity="0" fill-rule="nonzero"/>
		<path id="path" d="M24.59 21.25C23.68 23.66 21.35 25.37 18.62 25.37C15.1 25.37 12.25 22.52 12.25 19C12.25 15.47 15.1 12.62 18.62 12.62C20.8 12.62 22.72 13.71 23.87 15.38M21.5 17.87L25.75 17.87L25.75 13.63" stroke="#FFFFFF" stroke-opacity="1.000000" stroke-width="1.500000" stroke-linejoin="round"/>
	</g>
</svg>
